<svg width="541" height="116" viewBox="0 0 541 116" fill="none" xmlns="http://www.w3.org/2000/svg">
<rect x="303" width="238" height="116" rx="5" fill="#419BBC"/>
<path d="M69.6818 49.3636H50.4545C50.3182 47.7727 49.9545 46.3295 49.3636 45.0341C48.7955 43.7386 48 42.625 46.9773 41.6932C45.9773 40.7386 44.7614 40.0114 43.3295 39.5114C41.8977 38.9886 40.2727 38.7273 38.4545 38.7273C35.2727 38.7273 32.5795 39.5 30.375 41.0455C28.1932 42.5909 26.5341 44.8068 25.3977 47.6932C24.2841 50.5795 23.7273 54.0455 23.7273 58.0909C23.7273 62.3636 24.2955 65.9432 25.4318 68.8295C26.5909 71.6932 28.2614 73.8523 30.4432 75.3068C32.625 76.7386 35.25 77.4545 38.3182 77.4545C40.0682 77.4545 41.6364 77.2386 43.0227 76.8068C44.4091 76.3523 45.6136 75.7045 46.6364 74.8636C47.6591 74.0227 48.4886 73.0114 49.125 71.8295C49.7841 70.625 50.2273 69.2727 50.4545 67.7727L69.6818 67.9091C69.4545 70.8636 68.625 73.875 67.1932 76.9432C65.7614 79.9886 63.7273 82.8068 61.0909 85.3977C58.4773 87.9659 55.2386 90.0341 51.375 91.6023C47.5114 93.1705 43.0227 93.9545 37.9091 93.9545C31.5 93.9545 25.75 92.5795 20.6591 89.8295C15.5909 87.0795 11.5795 83.0341 8.625 77.6932C5.69318 72.3523 4.22727 65.8182 4.22727 58.0909C4.22727 50.3182 5.72727 43.7727 8.72727 38.4545C11.7273 33.1136 15.7727 29.0795 20.8636 26.3523C25.9545 23.6023 31.6364 22.2273 37.9091 22.2273C42.3182 22.2273 46.375 22.8295 50.0795 24.0341C53.7841 25.2386 57.0341 27 59.8295 29.3182C62.625 31.6136 64.875 34.4432 66.5795 37.8068C68.2841 41.1705 69.3182 45.0227 69.6818 49.3636ZM103.781 93.9545C98.0994 93.9545 93.2358 92.8295 89.1903 90.5795C85.1449 88.3068 82.0426 85.1477 79.8835 81.1023C77.7244 77.0341 76.6449 72.3182 76.6449 66.9545C76.6449 61.5909 77.7244 56.8864 79.8835 52.8409C82.0426 48.7727 85.1449 45.6136 89.1903 43.3636C93.2358 41.0909 98.0994 39.9545 103.781 39.9545C109.463 39.9545 114.327 41.0909 118.372 43.3636C122.418 45.6136 125.52 48.7727 127.679 52.8409C129.838 56.8864 130.918 61.5909 130.918 66.9545C130.918 72.3182 129.838 77.0341 127.679 81.1023C125.52 85.1477 122.418 88.3068 118.372 90.5795C114.327 92.8295 109.463 93.9545 103.781 93.9545ZM103.918 80.0455C105.509 80.0455 106.884 79.5114 108.043 78.4432C109.202 77.375 110.099 75.8523 110.736 73.875C111.372 71.8977 111.69 69.5455 111.69 66.8182C111.69 64.0682 111.372 61.7159 110.736 59.7614C110.099 57.7841 109.202 56.2614 108.043 55.1932C106.884 54.125 105.509 53.5909 103.918 53.5909C102.236 53.5909 100.793 54.125 99.5881 55.1932C98.3835 56.2614 97.4631 57.7841 96.8267 59.7614C96.1903 61.7159 95.8722 64.0682 95.8722 66.8182C95.8722 69.5455 96.1903 71.8977 96.8267 73.875C97.4631 75.8523 98.3835 77.375 99.5881 78.4432C100.793 79.5114 102.236 80.0455 103.918 80.0455ZM138.554 93V40.6364H156.418V50.5909H156.963C158.054 47.3182 159.918 44.7273 162.554 42.8182C165.19 40.9091 168.327 39.9545 171.963 39.9545C175.645 39.9545 178.815 40.9318 181.474 42.8864C184.134 44.8182 185.736 47.3864 186.281 50.5909H186.827C187.713 47.3864 189.599 44.8182 192.486 42.8864C195.372 40.9318 198.759 39.9545 202.645 39.9545C207.668 39.9545 211.736 41.5682 214.849 44.7955C217.986 48.0227 219.554 52.3182 219.554 57.6818V93H200.736V62.4545C200.736 60.1591 200.156 58.3636 198.997 57.0682C197.838 55.75 196.281 55.0909 194.327 55.0909C192.395 55.0909 190.861 55.75 189.724 57.0682C188.611 58.3636 188.054 60.1591 188.054 62.4545V93H170.054V62.4545C170.054 60.1591 169.474 58.3636 168.315 57.0682C167.156 55.75 165.599 55.0909 163.645 55.0909C162.349 55.0909 161.236 55.3864 160.304 55.9773C159.372 56.5682 158.645 57.4205 158.122 58.5341C157.622 59.625 157.372 60.9318 157.372 62.4545V93H138.554ZM228.835 112.636V40.6364H247.517V49.7727H247.926C248.608 48 249.608 46.375 250.926 44.8977C252.244 43.3977 253.881 42.2045 255.835 41.3182C257.79 40.4091 260.063 39.9545 262.653 39.9545C266.108 39.9545 269.392 40.875 272.506 42.7159C275.642 44.5568 278.188 47.4545 280.142 51.4091C282.119 55.3636 283.108 60.5 283.108 66.8182C283.108 72.8636 282.165 77.875 280.278 81.8523C278.415 85.8295 275.915 88.7955 272.778 90.75C269.665 92.7045 266.244 93.6818 262.517 93.6818C260.062 93.6818 257.869 93.2841 255.938 92.4886C254.028 91.6705 252.392 90.5682 251.028 89.1818C249.688 87.7727 248.653 86.1818 247.926 84.4091H247.653V112.636H228.835ZM247.244 66.8182C247.244 69.3636 247.574 71.5682 248.233 73.4318C248.915 75.2727 249.869 76.7045 251.097 77.7273C252.347 78.7273 253.835 79.2273 255.562 79.2273C257.29 79.2273 258.756 78.7386 259.96 77.7614C261.188 76.7614 262.119 75.3409 262.756 73.5C263.415 71.6364 263.744 69.4091 263.744 66.8182C263.744 64.2273 263.415 62.0114 262.756 60.1705C262.119 58.3068 261.188 56.8864 259.96 55.9091C258.756 54.9091 257.29 54.4091 255.562 54.4091C253.835 54.4091 252.347 54.9091 251.097 55.9091C249.869 56.8864 248.915 58.3068 248.233 60.1705C247.574 62.0114 247.244 64.2273 247.244 66.8182Z" fill="white"/>
<path d="M328.969 93V23.1818H347.923V50.4545H373.014V23.1818H391.969V93H373.014V65.7273H347.923V93H328.969ZM435.196 70.0909V40.6364H454.014V93H436.151V83.0455H435.605C434.469 86.3864 432.48 89 429.639 90.8864C426.798 92.75 423.423 93.6818 419.514 93.6818C415.855 93.6818 412.651 92.8409 409.901 91.1591C407.173 89.4773 405.048 87.1591 403.526 84.2045C402.026 81.25 401.264 77.8636 401.241 74.0455V40.6364H420.06V70.0909C420.082 72.6818 420.741 74.7159 422.037 76.1932C423.355 77.6705 425.196 78.4091 427.56 78.4091C429.128 78.4091 430.48 78.0795 431.616 77.4205C432.776 76.7386 433.662 75.7841 434.276 74.5568C434.912 73.3068 435.219 71.8182 435.196 70.0909ZM463.312 93V23.1818H482.131V49.7727H482.403C483.085 48 484.085 46.375 485.403 44.8977C486.722 43.3977 488.358 42.2045 490.312 41.3182C492.267 40.4091 494.54 39.9545 497.131 39.9545C500.585 39.9545 503.869 40.875 506.983 42.7159C510.119 44.5568 512.665 47.4545 514.619 51.4091C516.597 55.3636 517.585 60.5 517.585 66.8182C517.585 72.8636 516.642 77.875 514.756 81.8523C512.892 85.8295 510.392 88.7955 507.256 90.75C504.142 92.7045 500.722 93.6818 496.994 93.6818C494.54 93.6818 492.347 93.2841 490.415 92.4886C488.506 91.6705 486.869 90.5682 485.506 89.1818C484.165 87.7727 483.131 86.1818 482.403 84.4091H481.994V93H463.312ZM481.722 66.8182C481.722 69.3636 482.051 71.5682 482.71 73.4318C483.392 75.2727 484.347 76.7045 485.574 77.7273C486.824 78.7273 488.313 79.2273 490.04 79.2273C491.767 79.2273 493.233 78.7386 494.438 77.7614C495.665 76.7614 496.597 75.3409 497.233 73.5C497.892 71.6364 498.222 69.4091 498.222 66.8182C498.222 64.2273 497.892 62.0114 497.233 60.1705C496.597 58.3068 495.665 56.8864 494.438 55.9091C493.233 54.9091 491.767 54.4091 490.04 54.4091C488.313 54.4091 486.824 54.9091 485.574 55.9091C484.347 56.8864 483.392 58.3068 482.71 60.1705C482.051 62.0114 481.722 64.2273 481.722 66.8182Z" fill="black"/>
</svg>
